<?xml version="1.0" encoding="utf-8"?>
<!-- Generator: Adobe Illustrator 16.0.0, SVG Export Plug-In . SVG Version: 6.00 Build 0)  -->
<!DOCTYPE svg PUBLIC "-//W3C//DTD SVG 1.1//EN" "http://www.w3.org/Graphics/SVG/1.1/DTD/svg11.dtd">
<svg version="1.1" id="Layer_1" xmlns="http://www.w3.org/2000/svg" xmlns:xlink="http://www.w3.org/1999/xlink" x="0px" y="0px"
	 width="400px" height="400px" viewBox="0 0 400 400" enable-background="new 0 0 400 400" xml:space="preserve">
<path opacity="0.8" fill="#FFFFFF" stroke="#FFFFFF" stroke-width="0.8376" stroke-miterlimit="10" d="M312.646,146.632
	c-5.755,0-11.334,0.838-16.619,2.396c0.025-0.797,0.042-1.592,0.042-2.396c0-36.855-27.919-66.734-62.354-66.734
	c-18.478,0-35.072,8.594-46.488,22.256c-11.409-13.662-28.003-22.256-46.481-22.256c-33.263,0-60.444,27.877-62.253,62.99
	C48.177,148.106,25,176.646,25,211.063c0,38.129,28.438,69.039,63.519,69.039c1.7,0,3.384-0.076,5.051-0.219v0.219h219.077
	c34.435,0,62.354-29.879,62.354-66.736C375,176.511,347.081,146.632,312.646,146.632z M186.305,192.192
	c0.318-0.361,0.62-0.723,0.922-1.082c0.301,0.359,0.604,0.721,0.93,1.082H186.305z"/>
<rect x="276" y="250.103" opacity="0.8" fill="#00AEEF" width="8" height="70"/>
<rect x="196" y="250.103" opacity="0.8" fill="#00AEEF" width="8" height="70"/>
<rect x="116" y="250.103" opacity="0.8" fill="#00AEEF" width="8" height="70"/>
<rect x="236" y="255.103" opacity="0.8" fill="#00AEEF" width="8" height="50"/>
<rect x="156" y="255.103" opacity="0.8" fill="#00AEEF" width="8" height="50"/>
</svg>
