<?xml version="1.0" encoding="utf-8"?>
<!-- Generator: Adobe Illustrator 16.0.0, SVG Export Plug-In . SVG Version: 6.00 Build 0)  -->
<!DOCTYPE svg PUBLIC "-//W3C//DTD SVG 1.1//EN" "http://www.w3.org/Graphics/SVG/1.1/DTD/svg11.dtd">
<svg version="1.1" id="Layer_1" xmlns="http://www.w3.org/2000/svg" xmlns:xlink="http://www.w3.org/1999/xlink" x="0px" y="0px"
	 width="400px" height="400px" viewBox="0 0 400 400" enable-background="new 0 0 400 400" xml:space="preserve">
<path opacity="0.8" fill="#FFFFFF" stroke="#FFFFFF" stroke-width="0.8376" stroke-miterlimit="10" d="M312.646,129.502
	c-5.755,0-11.334,0.837-16.619,2.396c0.025-0.796,0.042-1.592,0.042-2.396c0-36.856-27.919-66.735-62.354-66.735
	c-18.478,0-35.072,8.594-46.488,22.256c-11.409-13.662-28.003-22.256-46.48-22.256c-33.264,0-60.445,27.877-62.254,62.991
	C48.178,130.976,25,159.515,25,193.933c0,38.129,28.438,69.039,63.519,69.039c1.7,0,3.384-0.075,5.052-0.218v0.218h219.076
	c34.435,0,62.354-29.879,62.354-66.735S347.081,129.502,312.646,129.502z M186.305,175.062c0.318-0.361,0.62-0.722,0.922-1.082
	c0.301,0.36,0.604,0.721,0.93,1.082H186.305z"/>
<polygon opacity="0.8" fill="#FFF200" points="223.562,259.659 198.627,313.131 185.032,306.792 203.628,266.914 176.438,254.235 
	205.177,192.606 218.771,198.946 196.372,246.98 "/>
<polygon opacity="0.8" fill="#FFF200" points="148.562,269.762 123.627,323.233 110.032,316.895 128.628,277.017 101.438,264.338 
	130.177,202.709 143.771,209.049 121.372,257.083 "/>
<polygon opacity="0.8" fill="#FFF200" points="298.562,269.762 273.627,323.233 260.032,316.895 278.628,277.017 251.438,264.338 
	280.177,202.709 293.771,209.049 271.372,257.083 "/>
</svg>
