<?xml version="1.0" encoding="utf-8"?>
<!-- Generator: Adobe Illustrator 16.0.0, SVG Export Plug-In . SVG Version: 6.00 Build 0)  -->
<!DOCTYPE svg PUBLIC "-//W3C//DTD SVG 1.1//EN" "http://www.w3.org/Graphics/SVG/1.1/DTD/svg11.dtd">
<svg version="1.1" id="Layer_1" xmlns="http://www.w3.org/2000/svg" xmlns:xlink="http://www.w3.org/1999/xlink" x="0px" y="0px"
	 width="400px" height="400px" viewBox="0 0 400 400" enable-background="new 0 0 400 400" xml:space="preserve">
<path opacity="0.8" fill="#FFFFFF" stroke="#FFFFFF" stroke-width="0.8376" stroke-miterlimit="10" d="M312.646,166.633
	c-5.755,0-11.334,0.837-16.619,2.396c0.025-0.796,0.042-1.592,0.042-2.396c0-36.856-27.919-66.735-62.354-66.735
	c-18.478,0-35.072,8.594-46.488,22.256c-11.409-13.662-28.003-22.256-46.48-22.256c-33.264,0-60.445,27.877-62.254,62.991
	C48.178,168.106,25,196.646,25,231.063c0,38.129,28.438,69.039,63.519,69.039c1.7,0,3.384-0.075,5.052-0.218v0.218h219.076
	c34.435,0,62.354-29.879,62.354-66.735S347.081,166.633,312.646,166.633z M186.305,212.192c0.318-0.361,0.62-0.722,0.922-1.082
	c0.301,0.36,0.604,0.721,0.93,1.082H186.305z"/>
<g opacity="0.8">
	<path d="M284.505,295.623c-15.906,0-28.847-12.941-28.847-28.848v-1.5h8.715v1.5c0,11.102,9.031,20.133,20.132,20.133
		c11.102,0,20.133-9.031,20.133-20.133c0-11.101-9.031-20.132-20.133-20.132H215.25v-8.714h101.908
		c15.603,0,28.296-12.694,28.296-28.297c0-15.602-12.693-28.295-28.296-28.295s-28.296,12.693-28.296,28.295v1.5h-8.715v-1.5
		c0-20.407,16.603-37.01,37.011-37.01s37.011,16.603,37.011,37.01c0,11.146-4.963,21.533-13.459,28.535
		c9.919,1.519,17.54,10.108,17.54,20.445c0,11.405-9.278,20.684-20.684,20.684s-20.684-9.278-20.684-20.684v-1.5h8.714v1.5
		c0,6.6,5.369,11.969,11.97,11.969s11.97-5.369,11.97-11.969c0-6.601-5.369-11.97-11.97-11.97h-32.412
		c5.252,5.361,8.198,12.507,8.198,20.132C313.353,282.682,300.411,295.623,284.505,295.623z"/>
	<path d="M317.158,174.123c19.584,0,35.511,15.926,35.511,35.51c0,12.475-6.458,23.461-16.213,29.797h1.11
		c10.58,0,19.184,8.604,19.184,19.184c0,10.579-8.604,19.184-19.184,19.184c-10.579,0-19.184-8.604-19.184-19.184h5.714
		c0,7.428,6.042,13.469,13.47,13.469c7.429,0,13.47-6.041,13.47-13.469c0-7.429-6.041-13.47-13.47-13.47h-36.351
		c6.465,5.004,10.637,12.841,10.637,21.632c0,15.078-12.27,27.348-27.348,27.348c-15.077,0-27.347-12.27-27.347-27.348h5.715
		c0,11.928,9.706,21.633,21.632,21.633c11.927,0,21.633-9.705,21.633-21.633c0-11.926-9.706-21.632-21.633-21.632H216.75v-5.714
		h100.408c16.434,0,29.796-13.363,29.796-29.797c0-16.432-13.362-29.795-29.796-29.795c-16.432,0-29.796,13.363-29.796,29.795
		h-5.715C281.647,190.049,297.574,174.123,317.158,174.123 M317.158,171.123c-21.235,0-38.511,17.275-38.511,38.51v3h3h5.715h3v-3
		c0-14.775,12.021-26.795,26.796-26.795s26.796,12.021,26.796,26.795c0,14.775-12.021,26.797-26.796,26.797H216.75h-3v3v5.714v3h3
		h67.755c10.274,0,18.633,8.358,18.633,18.632c0,10.274-8.358,18.633-18.633,18.633c-10.273,0-18.632-8.358-18.632-18.633v-3h-3
		h-5.715h-3v3c0,16.733,13.613,30.348,30.347,30.348s30.348-13.614,30.348-30.348c0-6.868-2.271-13.365-6.392-18.632h29.105
		c5.773,0,10.47,4.696,10.47,10.47c0,5.772-4.696,10.469-10.47,10.469s-10.47-4.696-10.47-10.469v-3h-3h-5.714h-3v3
		c0,12.232,9.951,22.184,22.184,22.184s22.184-9.951,22.184-22.184c0-10.037-6.7-18.539-15.863-21.267
		c7.478-7.192,11.782-17.124,11.782-27.714C355.669,188.398,338.394,171.123,317.158,171.123L317.158,171.123z"/>
</g>
</svg>
