<?xml version="1.0" encoding="utf-8"?>
<!-- Generator: Adobe Illustrator 16.0.0, SVG Export Plug-In . SVG Version: 6.00 Build 0)  -->
<!DOCTYPE svg PUBLIC "-//W3C//DTD SVG 1.1//EN" "http://www.w3.org/Graphics/SVG/1.1/DTD/svg11.dtd">
<svg version="1.1" id="Layer_1" xmlns="http://www.w3.org/2000/svg" xmlns:xlink="http://www.w3.org/1999/xlink" x="0px" y="0px"
	 width="400px" height="400px" viewBox="0 0 400 400" enable-background="new 0 0 400 400" xml:space="preserve">
<path opacity="0.8" fill="#FFCB05" stroke="#FFCB05" stroke-width="5" stroke-linecap="round" stroke-linejoin="round" stroke-miterlimit="10" d="
	M189.705,226.496c-43.079,0-78-34.922-78-78.001c0-43.078,34.921-78,78-78c4.826,0,9.549,0.441,14.133,1.281
	c-16.572-13.018-37.468-20.781-60.176-20.781c-53.849,0-97.5,43.652-97.5,97.5c0,53.849,43.651,97.501,97.5,97.501
	c22.708,0,43.604-7.764,60.176-20.781C199.254,226.055,194.531,226.496,189.705,226.496z"/>
<path opacity="0.8" fill="#FFFFFF" stroke="#FFFFFF" stroke-width="0.8376" stroke-miterlimit="10" d="M312.646,157.273
	c-5.755,0-11.334,0.837-16.619,2.396c0.025-0.796,0.042-1.592,0.042-2.396c0-36.856-27.919-66.735-62.354-66.735
	c-18.478,0-35.072,8.594-46.488,22.256c-11.409-13.662-28.003-22.256-46.48-22.256c-33.264,0-60.445,27.877-62.254,62.991
	C48.178,158.747,25,187.286,25,221.704c0,38.129,28.438,69.039,63.519,69.039c1.7,0,3.384-0.075,5.052-0.218v0.218h219.076
	c34.435,0,62.354-29.879,62.354-66.735S347.081,157.273,312.646,157.273z M186.305,202.833c0.318-0.361,0.62-0.722,0.922-1.082
	c0.301,0.36,0.604,0.721,0.93,1.082H186.305z"/>
<polygon opacity="0.8" fill="#FFF200" points="223.562,287.431 198.627,340.902 185.032,334.563 203.628,294.686 176.438,282.007 
	205.177,220.378 218.771,226.718 196.372,274.752 "/>
<polygon opacity="0.8" fill="#FFF200" points="148.562,297.533 123.627,351.005 110.032,344.666 128.628,304.788 101.438,292.109 
	130.177,230.48 143.771,236.82 121.372,284.854 "/>
<polygon opacity="0.8" fill="#FFF200" points="298.562,297.533 273.627,351.005 260.032,344.666 278.628,304.788 251.438,292.109 
	280.177,230.48 293.771,236.82 271.372,284.854 "/>
</svg>
