<?xml version="1.0" encoding="utf-8"?>
<!-- Generator: Adobe Illustrator 16.0.0, SVG Export Plug-In . SVG Version: 6.00 Build 0)  -->
<!DOCTYPE svg PUBLIC "-//W3C//DTD SVG 1.1//EN" "http://www.w3.org/Graphics/SVG/1.1/DTD/svg11.dtd">
<svg version="1.1" id="Layer_1" xmlns="http://www.w3.org/2000/svg" xmlns:xlink="http://www.w3.org/1999/xlink" x="0px" y="0px"
	 width="400px" height="400px" viewBox="0 0 400 400" enable-background="new 0 0 400 400" xml:space="preserve">
<path opacity="0.8" fill="#FFCB05" stroke="#FFCB05" stroke-width="5" stroke-linecap="round" stroke-linejoin="round" stroke-miterlimit="10" d="
	M193.402,229.627c-43.079,0-78-34.922-78-78.001c0-43.078,34.921-78,78-78c4.826,0,9.549,0.441,14.133,1.281
	c-16.572-13.018-37.468-20.781-60.176-20.781c-53.849,0-97.5,43.652-97.5,97.5c0,53.849,43.651,97.501,97.5,97.501
	c22.708,0,43.604-7.764,60.176-20.781C202.951,229.186,198.229,229.627,193.402,229.627z"/>
<path opacity="0.8" fill="#FFFFFF" stroke="#FFFFFF" stroke-width="0.8376" stroke-miterlimit="10" d="M312.646,160.403
	c-5.755,0-11.334,0.838-16.619,2.396c0.025-0.797,0.042-1.592,0.042-2.396c0-36.855-27.919-66.734-62.354-66.734
	c-18.478,0-35.072,8.594-46.488,22.256c-11.409-13.662-28.003-22.256-46.48-22.256c-33.264,0-60.445,27.877-62.254,62.99
	C48.178,161.878,25,190.416,25,224.834c0,38.129,28.438,69.039,63.519,69.039c1.7,0,3.384-0.074,5.052-0.217v0.217h219.076
	c34.435,0,62.354-29.879,62.354-66.734C375,190.281,347.081,160.403,312.646,160.403z M186.305,205.963
	c0.318-0.361,0.62-0.721,0.922-1.082c0.301,0.361,0.604,0.721,0.93,1.082H186.305z"/>
<rect x="276" y="263.874" opacity="0.8" fill="#00AEEF" width="8" height="70"/>
<rect x="196" y="263.874" opacity="0.8" fill="#00AEEF" width="8" height="70"/>
<rect x="116" y="263.874" opacity="0.8" fill="#00AEEF" width="8" height="70"/>
<rect x="236" y="268.874" opacity="0.8" fill="#00AEEF" width="8" height="50"/>
<rect x="156" y="268.874" opacity="0.8" fill="#00AEEF" width="8" height="50"/>
</svg>
