<?xml version="1.0" encoding="utf-8"?>
<!-- Generator: Adobe Illustrator 16.0.0, SVG Export Plug-In . SVG Version: 6.00 Build 0)  -->
<!DOCTYPE svg PUBLIC "-//W3C//DTD SVG 1.1//EN" "http://www.w3.org/Graphics/SVG/1.1/DTD/svg11.dtd">
<svg version="1.1" id="Layer_1" xmlns="http://www.w3.org/2000/svg" xmlns:xlink="http://www.w3.org/1999/xlink" x="0px" y="0px"
	 width="400px" height="400px" viewBox="0 0 400 400" enable-background="new 0 0 400 400" xml:space="preserve">
<circle opacity="0.8" fill="#FFF200" cx="282.535" cy="178.877" r="100"/>
<path opacity="0.8" fill="#FFFFFF" stroke="#FFFFFF" stroke-width="0.8376" stroke-miterlimit="10" d="M305.111,187.652
	c-5.756,0-11.334,0.838-16.619,2.396c0.025-0.797,0.041-1.592,0.041-2.396c0-36.855-27.918-66.734-62.354-66.734
	c-18.479,0-35.072,8.594-46.488,22.256c-11.41-13.662-28.004-22.256-46.482-22.256c-33.262,0-60.443,27.877-62.252,62.99
	c-30.315,5.219-53.492,33.758-53.492,68.176c0,38.129,28.438,69.039,63.518,69.039c1.701,0,3.385-0.076,5.051-0.219v0.219h219.078
	c34.434,0,62.354-29.879,62.354-66.736C367.465,217.531,339.545,187.652,305.111,187.652z M178.77,233.213
	c0.318-0.361,0.619-0.723,0.922-1.082c0.301,0.359,0.604,0.721,0.93,1.082H178.77z"/>
</svg>
