<?xml version="1.0" standalone="no"?>
<!DOCTYPE svg PUBLIC "-//W3C//DTD SVG 20010904//EN"
 "http://www.w3.org/TR/2001/REC-SVG-20010904/DTD/svg10.dtd">
<svg version="1.0" xmlns="http://www.w3.org/2000/svg"
 width="1667.000000pt" height="1667.000000pt" viewBox="0 0 1667.000000 1667.000000"
 preserveAspectRatio="xMidYMid meet">
<metadata>
Created by potrace 1.11, written by Peter Selinger 2001-2013
</metadata>
<g transform="translate(0.000000,1667.000000) scale(0.100000,-0.100000)"
fill="#000000" stroke="none">
<path d="M830 8335 l0 -7505 7503 2 7502 3 3 7503 2 7502 -7505 0 -7505 0 0
-7505z m14790 5 l0 -7290 -7290 0 -7290 0 0 7283 c0 4006 3 7287 7 7290 3 4
3284 7 7290 7 l7283 0 0 -7290z"/>
<path d="M4995 10785 c-22 -8 -740 -201 -1595 -430 -855 -228 -1563 -419
-1573 -423 -15 -6 217 -413 1573 -2762 875 -1515 1608 -2785 1628 -2823 20
-37 39 -67 43 -67 4 0 35 48 69 108 34 59 766 1328 1627 2820 l1566 2712 22
-37 c335 -579 3162 -5476 3185 -5518 50 -93 54 -95 83 -44 94 165 3199 5542
3216 5571 l22 37 -52 15 -52 16 -1571 -421 c-864 -232 -1580 -421 -1591 -421
-11 0 -727 189 -1591 421 l-1572 421 -48 -15 -49 -15 -1623 435 c-892 239
-1635 435 -1650 434 -15 0 -45 -7 -67 -14z"/>
</g>
</svg>
