<?xml version="1.0" standalone="no"?>
<!DOCTYPE svg PUBLIC "-//W3C//DTD SVG 20010904//EN"
 "http://www.w3.org/TR/2001/REC-SVG-20010904/DTD/svg10.dtd">
<svg version="1.0" xmlns="http://www.w3.org/2000/svg"
 width="1667.000000pt" height="1667.000000pt" viewBox="0 0 1667.000000 1667.000000"
 preserveAspectRatio="xMidYMid meet">
<metadata>
Created by potrace 1.11, written by Peter Selinger 2001-2013
</metadata>
<g transform="translate(0.000000,1667.000000) scale(0.100000,-0.100000)"
fill="#000000" stroke="none">
<path d="M830 8335 l0 -7505 7505 0 7505 0 0 7505 0 7505 -7505 0 -7505 0 0
-7505z m14790 0 l0 -7285 -7285 0 -7285 0 0 7285 0 7285 7285 0 7285 0 0
-7285z"/>
<path d="M3448 10370 c-895 -239 -1630 -438 -1633 -442 -3 -3 728 -1278 1626
-2833 1052 -1822 1635 -2822 1640 -2813 71 127 3243 5615 3248 5621 6 6 3220
-5542 3255 -5618 3 -5 12 -1 21 10 12 14 2955 5107 3226 5582 17 28 26 53 22
56 -4 2 -33 10 -63 17 -30 6 -762 201 -1625 432 l-1571 420 -1499 -402 c-825
-221 -1559 -417 -1631 -435 l-131 -32 -1599 428 c-880 235 -1612 432 -1629
437 -25 7 -315 -68 -1657 -428z"/>
</g>
</svg>
