<?xml version="1.0" encoding="utf-8"?>
<!-- Generator: Adobe Illustrator 16.0.0, SVG Export Plug-In . SVG Version: 6.00 Build 0)  -->
<!DOCTYPE svg PUBLIC "-//W3C//DTD SVG 1.1//EN" "http://www.w3.org/Graphics/SVG/1.1/DTD/svg11.dtd">
<svg version="1.1" id="Layer_1" xmlns="http://www.w3.org/2000/svg" xmlns:xlink="http://www.w3.org/1999/xlink" x="0px" y="0px"
	 width="400px" height="400px" viewBox="0 0 400 400" enable-background="new 0 0 400 400" xml:space="preserve">
<circle opacity="0.8" fill="#FFF200" cx="282.5" cy="159" r="100"/>
<path opacity="0.8" fill="#FFFFFF" stroke="#FFFFFF" stroke-width="0.8376" stroke-miterlimit="10" d="M305.146,167.529
	c-5.755,0-11.334,0.838-16.619,2.396c0.025-0.797,0.042-1.592,0.042-2.396c0-36.855-27.919-66.734-62.354-66.734
	c-18.478,0-35.072,8.594-46.488,22.256c-11.409-13.662-28.003-22.256-46.481-22.256c-33.263,0-60.444,27.877-62.253,62.99
	C40.677,169.004,17.5,197.543,17.5,231.961C17.5,270.09,45.938,301,81.019,301c1.7,0,3.384-0.076,5.051-0.219V301h219.077
	c34.435,0,62.354-29.879,62.354-66.736C367.5,197.408,339.581,167.529,305.146,167.529z M178.805,213.09
	c0.318-0.361,0.62-0.723,0.922-1.082c0.301,0.359,0.604,0.721,0.93,1.082H178.805z"/>
<rect x="188.5" y="271" opacity="0.8" fill="#00AEEF" width="8" height="70"/>
<rect x="268.5" y="271" opacity="0.8" fill="#00AEEF" width="8" height="70"/>
<rect x="108.5" y="271" opacity="0.8" fill="#00AEEF" width="8" height="70"/>
<rect x="228.5" y="276" opacity="0.8" fill="#00AEEF" width="8" height="50"/>
<rect x="148.5" y="276" opacity="0.8" fill="#00AEEF" width="8" height="50"/>
</svg>
