<?xml version="1.0" encoding="utf-8"?>
<!-- Generator: Adobe Illustrator 16.0.0, SVG Export Plug-In . SVG Version: 6.00 Build 0)  -->
<!DOCTYPE svg PUBLIC "-//W3C//DTD SVG 1.1//EN" "http://www.w3.org/Graphics/SVG/1.1/DTD/svg11.dtd">
<svg version="1.1" id="Layer_1" xmlns="http://www.w3.org/2000/svg" xmlns:xlink="http://www.w3.org/1999/xlink" x="0px" y="0px"
	 width="400px" height="400px" viewBox="0 0 400 400" enable-background="new 0 0 400 400" xml:space="preserve">
<circle opacity="0.8" fill="#FFF200" cx="195.25" cy="182.834" r="112.5"/>
<g opacity="0.8">
	<path d="M241.006,327.166c-15.906,0-28.848-12.941-28.848-28.848v-1.5h8.715v1.5c0,11.102,9.031,20.133,20.133,20.133
		s20.133-9.031,20.133-20.133c0-11.101-9.031-20.131-20.133-20.131H171.75v-8.715h101.908c15.603,0,28.297-12.694,28.297-28.297
		c0-15.602-12.694-28.295-28.297-28.295c-15.602,0-28.295,12.693-28.295,28.295v1.5h-8.715v-1.5c0-20.407,16.603-37.01,37.01-37.01
		c20.408,0,37.012,16.603,37.012,37.01c0,11.146-4.963,21.533-13.459,28.535c9.918,1.52,17.539,10.108,17.539,20.445
		c0,11.405-9.278,20.684-20.684,20.684s-20.684-9.278-20.684-20.684v-1.5h8.715v1.5c0,6.6,5.369,11.969,11.969,11.969
		c6.601,0,11.971-5.369,11.971-11.969s-5.37-11.969-11.971-11.969h-32.411c5.252,5.361,8.198,12.506,8.198,20.131
		C269.854,314.225,256.912,327.166,241.006,327.166z"/>
	<path d="M273.658,205.666c19.584,0,35.512,15.926,35.512,35.51c0,12.475-6.459,23.461-16.213,29.797h1.109
		c10.58,0,19.184,8.604,19.184,19.184s-8.604,19.184-19.184,19.184c-10.578,0-19.184-8.604-19.184-19.184h5.715
		c0,7.428,6.041,13.469,13.469,13.469c7.43,0,13.471-6.041,13.471-13.469s-6.041-13.469-13.471-13.469h-36.35
		c6.465,5.004,10.637,12.84,10.637,21.631c0,15.078-12.27,27.348-27.348,27.348s-27.348-12.27-27.348-27.348h5.715
		c0,11.928,9.707,21.633,21.633,21.633s21.633-9.705,21.633-21.633c0-11.926-9.707-21.631-21.633-21.631H173.25v-5.715h100.408
		c16.434,0,29.797-13.363,29.797-29.797c0-16.432-13.363-29.795-29.797-29.795c-16.432,0-29.795,13.363-29.795,29.795h-5.715
		C238.148,221.592,254.074,205.666,273.658,205.666 M273.658,202.666c-21.234,0-38.51,17.275-38.51,38.51v3h3h5.715h3v-3
		c0-14.774,12.021-26.795,26.795-26.795c14.775,0,26.797,12.021,26.797,26.795c0,14.775-12.021,26.797-26.797,26.797H173.25h-3v3
		v5.715v3h3h67.756c10.274,0,18.633,8.357,18.633,18.631c0,10.274-8.358,18.633-18.633,18.633s-18.633-8.358-18.633-18.633v-3h-3
		h-5.715h-3v3c0,16.733,13.614,30.348,30.348,30.348s30.348-13.614,30.348-30.348c0-6.867-2.271-13.365-6.392-18.631h29.104
		c5.773,0,10.471,4.696,10.471,10.469s-4.697,10.469-10.471,10.469c-5.772,0-10.469-4.696-10.469-10.469v-3h-3h-5.715h-3v3
		c0,12.232,9.951,22.184,22.184,22.184s22.184-9.951,22.184-22.184c0-10.037-6.7-18.538-15.863-21.267
		c7.479-7.192,11.783-17.125,11.783-27.714C312.17,219.941,294.894,202.666,273.658,202.666L273.658,202.666z"/>
</g>
</svg>
